<mxfile host="app.diagrams.net" modified="2023-06-24T15:03:20.139Z" agent="Mozilla/5.0 (Windows NT 10.0; Win64; x64) AppleWebKit/537.36 (KHTML, like Gecko) Chrome/114.0.0.0 Safari/537.36" etag="9MBiA9VpyQPkQ9szdqNd" version="21.5.0" type="github">
  <diagram name="Trang-1" id="Eg0rM6GmB08_mQ8uZG3P">
    <mxGraphModel dx="2261" dy="1957" grid="1" gridSize="10" guides="1" tooltips="1" connect="1" arrows="1" fold="1" page="1" pageScale="1" pageWidth="827" pageHeight="1169" math="0" shadow="0">
      <root>
        <mxCell id="0" />
        <mxCell id="1" parent="0" />
        <mxCell id="t6jX3Xbki4ghEFm6xxDZ-2" value="" style="edgeStyle=orthogonalEdgeStyle;rounded=0;orthogonalLoop=1;jettySize=auto;html=1;" edge="1" parent="1" source="KTJxehEkNpqMAW1DEm2n-1" target="t6jX3Xbki4ghEFm6xxDZ-1">
          <mxGeometry relative="1" as="geometry" />
        </mxCell>
        <mxCell id="t6jX3Xbki4ghEFm6xxDZ-5" value="" style="edgeStyle=orthogonalEdgeStyle;rounded=0;orthogonalLoop=1;jettySize=auto;html=1;" edge="1" parent="1" source="KTJxehEkNpqMAW1DEm2n-1" target="t6jX3Xbki4ghEFm6xxDZ-4">
          <mxGeometry relative="1" as="geometry" />
        </mxCell>
        <mxCell id="KTJxehEkNpqMAW1DEm2n-1" value="Book" style="rounded=0;whiteSpace=wrap;html=1;" parent="1" vertex="1">
          <mxGeometry x="330" width="120" height="60" as="geometry" />
        </mxCell>
        <mxCell id="KTJxehEkNpqMAW1DEm2n-5" value="" style="edgeStyle=orthogonalEdgeStyle;rounded=0;orthogonalLoop=1;jettySize=auto;html=1;" parent="1" source="KTJxehEkNpqMAW1DEm2n-2" target="KTJxehEkNpqMAW1DEm2n-4" edge="1">
          <mxGeometry relative="1" as="geometry" />
        </mxCell>
        <mxCell id="KTJxehEkNpqMAW1DEm2n-7" value="" style="edgeStyle=orthogonalEdgeStyle;rounded=0;orthogonalLoop=1;jettySize=auto;html=1;" parent="1" source="KTJxehEkNpqMAW1DEm2n-2" target="KTJxehEkNpqMAW1DEm2n-6" edge="1">
          <mxGeometry relative="1" as="geometry" />
        </mxCell>
        <mxCell id="KTJxehEkNpqMAW1DEm2n-9" style="edgeStyle=orthogonalEdgeStyle;rounded=0;orthogonalLoop=1;jettySize=auto;html=1;exitX=1;exitY=1;exitDx=0;exitDy=0;entryX=0;entryY=0;entryDx=0;entryDy=0;" parent="1" source="KTJxehEkNpqMAW1DEm2n-2" target="KTJxehEkNpqMAW1DEm2n-8" edge="1">
          <mxGeometry relative="1" as="geometry" />
        </mxCell>
        <mxCell id="KTJxehEkNpqMAW1DEm2n-11" style="edgeStyle=orthogonalEdgeStyle;rounded=0;orthogonalLoop=1;jettySize=auto;html=1;exitX=0;exitY=1;exitDx=0;exitDy=0;entryX=1;entryY=0;entryDx=0;entryDy=0;" parent="1" source="KTJxehEkNpqMAW1DEm2n-2" target="KTJxehEkNpqMAW1DEm2n-10" edge="1">
          <mxGeometry relative="1" as="geometry" />
        </mxCell>
        <mxCell id="KTJxehEkNpqMAW1DEm2n-13" value="" style="edgeStyle=orthogonalEdgeStyle;rounded=0;orthogonalLoop=1;jettySize=auto;html=1;" parent="1" source="KTJxehEkNpqMAW1DEm2n-2" target="KTJxehEkNpqMAW1DEm2n-12" edge="1">
          <mxGeometry relative="1" as="geometry" />
        </mxCell>
        <mxCell id="KTJxehEkNpqMAW1DEm2n-15" style="edgeStyle=orthogonalEdgeStyle;rounded=0;orthogonalLoop=1;jettySize=auto;html=1;exitX=0;exitY=0.75;exitDx=0;exitDy=0;entryX=1;entryY=0.5;entryDx=0;entryDy=0;" parent="1" source="KTJxehEkNpqMAW1DEm2n-2" target="KTJxehEkNpqMAW1DEm2n-14" edge="1">
          <mxGeometry relative="1" as="geometry">
            <Array as="points">
              <mxPoint x="330" y="310" />
              <mxPoint x="205" y="310" />
              <mxPoint x="205" y="340" />
            </Array>
          </mxGeometry>
        </mxCell>
        <mxCell id="KTJxehEkNpqMAW1DEm2n-2" value="Lesson" style="rounded=0;whiteSpace=wrap;html=1;" parent="1" vertex="1">
          <mxGeometry x="330" y="230" width="120" height="60" as="geometry" />
        </mxCell>
        <mxCell id="KTJxehEkNpqMAW1DEm2n-4" value="Vocabulary" style="rounded=0;whiteSpace=wrap;html=1;" parent="1" vertex="1">
          <mxGeometry x="530" y="230" width="120" height="60" as="geometry" />
        </mxCell>
        <mxCell id="KTJxehEkNpqMAW1DEm2n-17" value="" style="edgeStyle=orthogonalEdgeStyle;rounded=0;orthogonalLoop=1;jettySize=auto;html=1;" parent="1" source="KTJxehEkNpqMAW1DEm2n-6" target="KTJxehEkNpqMAW1DEm2n-16" edge="1">
          <mxGeometry relative="1" as="geometry" />
        </mxCell>
        <mxCell id="KTJxehEkNpqMAW1DEm2n-6" value="Kanji" style="rounded=0;whiteSpace=wrap;html=1;" parent="1" vertex="1">
          <mxGeometry x="330" y="370" width="120" height="60" as="geometry" />
        </mxCell>
        <mxCell id="KTJxehEkNpqMAW1DEm2n-8" value="Grammar" style="rounded=0;whiteSpace=wrap;html=1;" parent="1" vertex="1">
          <mxGeometry x="530" y="370" width="120" height="60" as="geometry" />
        </mxCell>
        <mxCell id="KTJxehEkNpqMAW1DEm2n-10" value="Reading" style="rounded=0;whiteSpace=wrap;html=1;" parent="1" vertex="1">
          <mxGeometry x="120" y="360" width="120" height="60" as="geometry" />
        </mxCell>
        <mxCell id="KTJxehEkNpqMAW1DEm2n-12" value="Writing" style="rounded=0;whiteSpace=wrap;html=1;" parent="1" vertex="1">
          <mxGeometry x="110" y="230" width="120" height="60" as="geometry" />
        </mxCell>
        <mxCell id="KTJxehEkNpqMAW1DEm2n-14" value="Exercise" style="rounded=0;whiteSpace=wrap;html=1;" parent="1" vertex="1">
          <mxGeometry x="-40" y="310" width="120" height="60" as="geometry" />
        </mxCell>
        <mxCell id="KTJxehEkNpqMAW1DEm2n-16" value="Vocabulary" style="rounded=0;whiteSpace=wrap;html=1;" parent="1" vertex="1">
          <mxGeometry x="330" y="510" width="120" height="60" as="geometry" />
        </mxCell>
        <mxCell id="KTJxehEkNpqMAW1DEm2n-23" value="" style="edgeStyle=orthogonalEdgeStyle;rounded=0;orthogonalLoop=1;jettySize=auto;html=1;" parent="1" source="KTJxehEkNpqMAW1DEm2n-19" target="KTJxehEkNpqMAW1DEm2n-22" edge="1">
          <mxGeometry relative="1" as="geometry" />
        </mxCell>
        <mxCell id="KTJxehEkNpqMAW1DEm2n-19" value="Vocabulary" style="rounded=0;whiteSpace=wrap;html=1;" parent="1" vertex="1">
          <mxGeometry x="-160" y="40" width="120" height="60" as="geometry" />
        </mxCell>
        <mxCell id="KTJxehEkNpqMAW1DEm2n-22" value="Lesson" style="rounded=0;whiteSpace=wrap;html=1;" parent="1" vertex="1">
          <mxGeometry x="-360" y="40" width="120" height="60" as="geometry" />
        </mxCell>
        <mxCell id="t6jX3Xbki4ghEFm6xxDZ-8" style="edgeStyle=orthogonalEdgeStyle;rounded=0;orthogonalLoop=1;jettySize=auto;html=1;exitX=0;exitY=0.5;exitDx=0;exitDy=0;" edge="1" parent="1" source="KTJxehEkNpqMAW1DEm2n-24" target="KTJxehEkNpqMAW1DEm2n-22">
          <mxGeometry relative="1" as="geometry" />
        </mxCell>
        <mxCell id="KTJxehEkNpqMAW1DEm2n-24" value="Kanji" style="rounded=0;whiteSpace=wrap;html=1;" parent="1" vertex="1">
          <mxGeometry x="-160" y="-50" width="120" height="60" as="geometry" />
        </mxCell>
        <mxCell id="t6jX3Xbki4ghEFm6xxDZ-3" style="edgeStyle=orthogonalEdgeStyle;rounded=0;orthogonalLoop=1;jettySize=auto;html=1;exitX=0.5;exitY=1;exitDx=0;exitDy=0;entryX=0.5;entryY=0;entryDx=0;entryDy=0;" edge="1" parent="1" source="t6jX3Xbki4ghEFm6xxDZ-1" target="KTJxehEkNpqMAW1DEm2n-2">
          <mxGeometry relative="1" as="geometry" />
        </mxCell>
        <mxCell id="t6jX3Xbki4ghEFm6xxDZ-1" value="Minna" style="ellipse;whiteSpace=wrap;html=1;rounded=0;" vertex="1" parent="1">
          <mxGeometry x="350" y="120" width="80" height="80" as="geometry" />
        </mxCell>
        <mxCell id="t6jX3Xbki4ghEFm6xxDZ-6" style="edgeStyle=orthogonalEdgeStyle;rounded=0;orthogonalLoop=1;jettySize=auto;html=1;exitX=0;exitY=0.5;exitDx=0;exitDy=0;entryX=1;entryY=0.5;entryDx=0;entryDy=0;" edge="1" parent="1" source="t6jX3Xbki4ghEFm6xxDZ-4" target="KTJxehEkNpqMAW1DEm2n-19">
          <mxGeometry relative="1" as="geometry" />
        </mxCell>
        <mxCell id="t6jX3Xbki4ghEFm6xxDZ-7" style="edgeStyle=orthogonalEdgeStyle;rounded=0;orthogonalLoop=1;jettySize=auto;html=1;exitX=0;exitY=0;exitDx=0;exitDy=0;entryX=1;entryY=0.5;entryDx=0;entryDy=0;" edge="1" parent="1" source="t6jX3Xbki4ghEFm6xxDZ-4" target="KTJxehEkNpqMAW1DEm2n-24">
          <mxGeometry relative="1" as="geometry" />
        </mxCell>
        <mxCell id="t6jX3Xbki4ghEFm6xxDZ-10" style="edgeStyle=orthogonalEdgeStyle;rounded=0;orthogonalLoop=1;jettySize=auto;html=1;exitX=0.5;exitY=0;exitDx=0;exitDy=0;entryX=1;entryY=0.5;entryDx=0;entryDy=0;" edge="1" parent="1" source="t6jX3Xbki4ghEFm6xxDZ-4" target="t6jX3Xbki4ghEFm6xxDZ-9">
          <mxGeometry relative="1" as="geometry" />
        </mxCell>
        <mxCell id="t6jX3Xbki4ghEFm6xxDZ-4" value="Soumatome" style="ellipse;whiteSpace=wrap;html=1;rounded=0;" vertex="1" parent="1">
          <mxGeometry x="150" y="-10" width="80" height="80" as="geometry" />
        </mxCell>
        <mxCell id="t6jX3Xbki4ghEFm6xxDZ-11" style="edgeStyle=orthogonalEdgeStyle;rounded=0;orthogonalLoop=1;jettySize=auto;html=1;exitX=0;exitY=0.5;exitDx=0;exitDy=0;entryX=0.5;entryY=0;entryDx=0;entryDy=0;" edge="1" parent="1" source="t6jX3Xbki4ghEFm6xxDZ-9" target="KTJxehEkNpqMAW1DEm2n-22">
          <mxGeometry relative="1" as="geometry" />
        </mxCell>
        <mxCell id="t6jX3Xbki4ghEFm6xxDZ-9" value="Grammar" style="rounded=0;whiteSpace=wrap;html=1;" vertex="1" parent="1">
          <mxGeometry x="-160" y="-140" width="120" height="60" as="geometry" />
        </mxCell>
      </root>
    </mxGraphModel>
  </diagram>
</mxfile>
